<svg id="Layer_1" data-name="Layer 1" xmlns="http://www.w3.org/2000/svg" viewBox="0 0 50 50.02"><defs><style>.cls-1{fill:#050708;}.cls-2{fill:#09cbfb;}.cls-3{fill:#fefefe;}</style></defs><path class="cls-1" d="M29.55,10.49a17.09,17.09,0,0,1,4.58.55,1.1,1.1,0,0,0,1-.18,41.15,41.15,0,0,1,9.59-5,12.55,12.55,0,0,1,5.94-.81A4.82,4.82,0,0,1,55,10a16.15,16.15,0,0,1-1.43,6.71,45.92,45.92,0,0,1-4.92,8.86,1.44,1.44,0,0,0-.26,1.1,18.42,18.42,0,0,1-4.85,15.76,18.52,18.52,0,0,1-16.7,5.94,1.76,1.76,0,0,0-1.33.31,41.32,41.32,0,0,1-10.8,5.58,11.7,11.7,0,0,1-5.34.62A4.81,4.81,0,0,1,5,50a16.62,16.62,0,0,1,1.54-7,44.7,44.7,0,0,1,4.28-7.79,1.24,1.24,0,0,0,.2-1.09,19.06,19.06,0,0,1,14.69-23.2A17.28,17.28,0,0,1,29.55,10.49ZM29.6,12H28.35c-.27,0-.54.06-.81.09A16.69,16.69,0,0,0,16,18.38c-4.63,5.86-5.33,12.29-2.15,19.05A16.74,16.74,0,0,0,21.21,45a.83.83,0,0,0,1,0c2-1.41,4-2.89,5.84-4.48A105.3,105.3,0,0,0,38.81,30,87.52,87.52,0,0,0,45,22.14a.69.69,0,0,0,0-.84C41.67,15.26,36.45,12.28,29.6,12ZM11.73,36.54A42.33,42.33,0,0,0,8.18,43,15.91,15.91,0,0,0,6.52,49.8a3.49,3.49,0,0,0,3.75,3.69,13.25,13.25,0,0,0,4.86-.94,45.06,45.06,0,0,0,10.86-6A91.55,91.55,0,0,0,44.76,28.37a51.83,51.83,0,0,0,7.4-12.22A14.33,14.33,0,0,0,53.48,10a3.31,3.31,0,0,0-3-3.44A8.79,8.79,0,0,0,46.45,7a36,36,0,0,0-9.78,4.69s-.05.1-.07.13c.51.41.94.27,1.45-.06a30.09,30.09,0,0,1,5.5-2.9,10.49,10.49,0,0,1,4.65-1,3.18,3.18,0,0,1,3.07,2.76,9.07,9.07,0,0,1-.82,4.79,42.7,42.7,0,0,1-5.51,9.44,95,95,0,0,1-10.81,12.2,75.41,75.41,0,0,1-15,11.61,18.73,18.73,0,0,1-7.07,2.65c-2.49.28-4.27-1.11-4.2-3.59a9.26,9.26,0,0,1,.35-2.34,27.8,27.8,0,0,1,3.61-7.48A1,1,0,0,0,11.73,36.54ZM28,46.93c3.59.66,9.9-.65,14.21-5.27A17.24,17.24,0,0,0,47,28.07,99.27,99.27,0,0,1,28,46.93Zm-7.72-.7a19.52,19.52,0,0,1-7.38-7.3A30,30,0,0,0,10,44.75a9.1,9.1,0,0,0-.61,2.72c-.06,1.78.71,2.51,2.47,2.31C15,49.43,17.58,47.81,20.31,46.23Zm18.61-33.3a19.41,19.41,0,0,1,7.29,7.32,23.39,23.39,0,0,0,1.63-2.78,15.71,15.71,0,0,0,1.91-5.29C50,9.88,49.09,9,46.82,9.44,43.94,10,41.47,11.41,38.92,12.93Z" transform="translate(-5 -4.99)"/><path class="cls-2" d="M29.6,12c6.85.27,12.07,3.25,15.46,9.29a.69.69,0,0,1,0,.84A87.52,87.52,0,0,1,38.81,30,105.3,105.3,0,0,1,28.06,40.5c-1.87,1.59-3.83,3.07-5.84,4.48a.83.83,0,0,1-1,0,16.74,16.74,0,0,1-7.34-7.59c-3.18-6.76-2.48-13.19,2.15-19A16.69,16.69,0,0,1,27.54,12.1c.27,0,.54-.08.81-.09ZM20.25,38.63c.41.07.51-.32.68-.54s0-.52-.18-.73a14.06,14.06,0,0,1-1.12-1.31,11.53,11.53,0,0,1,1-14.75c.46-.48.49-.93.1-1.23s-.85-.16-1.2.21a13,13,0,0,0,.07,18A.77.77,0,0,0,20.25,38.63Z" transform="translate(-5 -4.99)"/><path class="cls-3" d="M11.73,36.54a1,1,0,0,1,.08,1.36A27.8,27.8,0,0,0,8.2,45.38a9.26,9.26,0,0,0-.35,2.34c-.07,2.48,1.71,3.87,4.2,3.59a18.73,18.73,0,0,0,7.07-2.65,75.41,75.41,0,0,0,15-11.61,95,95,0,0,0,10.81-12.2,42.7,42.7,0,0,0,5.51-9.44,9.07,9.07,0,0,0,.82-4.79A3.18,3.18,0,0,0,48.2,7.86a10.49,10.49,0,0,0-4.65,1,30.09,30.09,0,0,0-5.5,2.9c-.51.33-.94.47-1.45.06,0,0,0-.11.07-.13A36,36,0,0,1,46.45,7a8.79,8.79,0,0,1,4.07-.36,3.31,3.31,0,0,1,3,3.44,14.33,14.33,0,0,1-1.32,6.11,51.83,51.83,0,0,1-7.4,12.22A91.55,91.55,0,0,1,26,46.53a45.06,45.06,0,0,1-10.86,6,13.25,13.25,0,0,1-4.86.94A3.49,3.49,0,0,1,6.52,49.8,15.91,15.91,0,0,1,8.18,43,42.33,42.33,0,0,1,11.73,36.54Z" transform="translate(-5 -4.99)"/><path class="cls-2" d="M28,46.93A99.27,99.27,0,0,0,47,28.07a17.24,17.24,0,0,1-4.74,13.59C37.93,46.28,31.62,47.59,28,46.93Z" transform="translate(-5 -4.99)"/><path class="cls-1" d="M20.25,38.63a.77.77,0,0,1-.66-.31,13,13,0,0,1-.07-18c.35-.37.73-.57,1.2-.21s.36.75-.1,1.23a11.53,11.53,0,0,0-1,14.75,14.06,14.06,0,0,0,1.12,1.31c.19.21.36.5.18.73S20.66,38.7,20.25,38.63Z" transform="translate(-5 -4.99)"/></svg>