<svg id="Layer_1" data-name="Layer 1" xmlns="http://www.w3.org/2000/svg" viewBox="0 0 104.78 50.02"><defs><style>.cls-1{fill:#050708;}.cls-2{fill:#09cbfb;}.cls-3{fill:#fefefe;}.cls-4{font-size:12px;font-family:FranklinGothic-Heavy, Franklin Gothic Heavy;font-weight:800;}.cls-5{fill:#f9760b;}</style></defs><path class="cls-1" d="M32.16,8a17.09,17.09,0,0,1,4.58.55,1.1,1.1,0,0,0,1-.18,41.15,41.15,0,0,1,9.59-5,12.55,12.55,0,0,1,5.94-.81A4.82,4.82,0,0,1,57.6,7.53a16.31,16.31,0,0,1-1.43,6.71,45.92,45.92,0,0,1-4.92,8.86A1.44,1.44,0,0,0,51,24.2,18.42,18.42,0,0,1,46.14,40a18.52,18.52,0,0,1-16.7,5.94,1.76,1.76,0,0,0-1.33.31,41.32,41.32,0,0,1-10.8,5.58,11.7,11.7,0,0,1-5.34.62,4.81,4.81,0,0,1-4.35-4.95,16.62,16.62,0,0,1,1.54-7,44.7,44.7,0,0,1,4.28-7.79,1.24,1.24,0,0,0,.2-1.09A19.06,19.06,0,0,1,28.33,8.37,17.28,17.28,0,0,1,32.16,8Zm.05,1.52H31c-.27,0-.54.06-.81.09a16.69,16.69,0,0,0-11.53,6.28c-4.62,5.86-5.32,12.29-2.14,19a16.74,16.74,0,0,0,7.34,7.59.83.83,0,0,0,1,0c2-1.41,4-2.89,5.84-4.48A105.3,105.3,0,0,0,41.42,27.52a89.34,89.34,0,0,0,6.22-7.88.69.69,0,0,0,0-.84C44.28,12.76,39.06,9.78,32.21,9.51ZM14.34,34a43.27,43.27,0,0,0-3.56,6.49A15.9,15.9,0,0,0,9.13,47.3,3.48,3.48,0,0,0,12.87,51a13.27,13.27,0,0,0,4.87-.94A45.06,45.06,0,0,0,28.6,44,91.55,91.55,0,0,0,47.37,25.87a52.17,52.17,0,0,0,7.4-12.22,14.33,14.33,0,0,0,1.32-6.11,3.31,3.31,0,0,0-3-3.44,8.79,8.79,0,0,0-4.07.36,36,36,0,0,0-9.78,4.69s-.05.1-.07.13c.51.41.94.27,1.45-.06a30.09,30.09,0,0,1,5.5-2.9,10.49,10.49,0,0,1,4.65-1,3.16,3.16,0,0,1,3.06,2.76,9,9,0,0,1-.81,4.79,42.35,42.35,0,0,1-5.52,9.44,94.15,94.15,0,0,1-10.8,12.2,75.41,75.41,0,0,1-15,11.61,18.73,18.73,0,0,1-7.07,2.65c-2.49.28-4.27-1.11-4.21-3.59a9.75,9.75,0,0,1,.36-2.34,27.8,27.8,0,0,1,3.61-7.48A1,1,0,0,0,14.34,34Zm16.3,10.39c3.59.66,9.9-.65,14.21-5.27a17.24,17.24,0,0,0,4.74-13.59A99.27,99.27,0,0,1,30.64,44.43Zm-7.73-.7a19.57,19.57,0,0,1-7.37-7.3,30,30,0,0,0-2.94,5.82A9.1,9.1,0,0,0,12,45c-.06,1.78.71,2.51,2.47,2.31C17.59,46.93,20.19,45.31,22.91,43.73Zm18.62-33.3a19.48,19.48,0,0,1,7.29,7.32A23.39,23.39,0,0,0,50.45,15a15.71,15.71,0,0,0,1.91-5.29c.26-2.3-.66-3.14-2.93-2.74C46.54,7.46,44.08,8.91,41.53,10.43Z" transform="translate(-7.61 -2.49)"/><path class="cls-2" d="M32.21,9.51c6.85.27,12.07,3.25,15.46,9.29a.69.69,0,0,1,0,.84,89.34,89.34,0,0,1-6.22,7.88A105.3,105.3,0,0,1,30.67,38c-1.88,1.59-3.83,3.07-5.84,4.48a.83.83,0,0,1-1,0,16.74,16.74,0,0,1-7.34-7.59c-3.18-6.76-2.48-13.19,2.14-19A16.69,16.69,0,0,1,30.15,9.6c.27,0,.54-.08.81-.09ZM22.86,36.13c.41.07.5-.32.68-.54s0-.52-.18-.73a14.06,14.06,0,0,1-1.12-1.31,11.53,11.53,0,0,1,1-14.75c.46-.48.49-.93.1-1.23s-.85-.16-1.2.21a13,13,0,0,0,.07,18A.77.77,0,0,0,22.86,36.13Z" transform="translate(-7.61 -2.49)"/><path class="cls-3" d="M14.34,34a1,1,0,0,1,.08,1.36,27.8,27.8,0,0,0-3.61,7.48,9.75,9.75,0,0,0-.36,2.34c-.06,2.48,1.72,3.87,4.21,3.59a18.73,18.73,0,0,0,7.07-2.65,75.41,75.41,0,0,0,15-11.61,94.15,94.15,0,0,0,10.8-12.2,42.35,42.35,0,0,0,5.52-9.44,9,9,0,0,0,.81-4.79,3.16,3.16,0,0,0-3.06-2.76,10.49,10.49,0,0,0-4.65,1,30.09,30.09,0,0,0-5.5,2.9c-.51.33-.94.47-1.45.06,0,0,0-.11.07-.13a36,36,0,0,1,9.78-4.69,8.79,8.79,0,0,1,4.07-.36,3.31,3.31,0,0,1,3,3.44,14.33,14.33,0,0,1-1.32,6.11,52.17,52.17,0,0,1-7.4,12.22A91.55,91.55,0,0,1,28.6,44a45.06,45.06,0,0,1-10.86,6,13.27,13.27,0,0,1-4.87.94A3.48,3.48,0,0,1,9.13,47.3a15.9,15.9,0,0,1,1.65-6.77A43.27,43.27,0,0,1,14.34,34Z" transform="translate(-7.61 -2.49)"/><path class="cls-2" d="M30.64,44.43a99.27,99.27,0,0,0,19-18.86,17.24,17.24,0,0,1-4.74,13.59C40.54,43.78,34.23,45.09,30.64,44.43Z" transform="translate(-7.61 -2.49)"/><path class="cls-1" d="M22.86,36.13a.77.77,0,0,1-.66-.31,13,13,0,0,1-.07-18c.35-.37.73-.57,1.2-.21s.36.75-.1,1.23a11.53,11.53,0,0,0-1,14.75,14.06,14.06,0,0,0,1.12,1.31c.19.21.36.5.18.73S23.27,36.2,22.86,36.13Z" transform="translate(-7.61 -2.49)"/><text class="cls-4" transform="translate(44.45 32.07)">URANUS<tspan class="cls-5" x="47.05" y="0">OJ</tspan></text></svg>